<?xml version="1.0" encoding="utf-8"?>
<!-- Generator: Adobe Illustrator 23.0.5, SVG Export Plug-In . SVG Version: 6.00 Build 0)  -->
<svg version="1.1" id="Calque_1" xmlns="http://www.w3.org/2000/svg" xmlns:xlink="http://www.w3.org/1999/xlink" x="0px" y="0px"
	 viewBox="0 0 1476 992.7" style="enable-background:new 0 0 1476 992.7;" xml:space="preserve">
<style type="text/css">
	.st0{fill:#EA1586;}
	.st1{fill:#CE1475;}
	.st2{fill:#FFFFFF;}
</style>
<g>
	<path class="st0" d="M1112.7,425.5c-10.8,64.7-45.7,110.6-106.8,134.9c-63.8,25.4-136.2,8.4-183.2-41.3
		c-11.2-11.8-11.7-17.8-1-30.2c8.3-9.6,17.5-18.5,26.6-27.5c24.4-24.2,48.9-48.1,73.3-72.3c25.9-25.7,51.6-51.6,77.3-77.4
		c1.5-1.5,2.4-3.5,4.4-6.4c-3.6-2.3-6.7-4.8-10-6.4c-41.6-19.7-94.7-11.4-129.5,23.6c-52.6,52.8-105.2,105.5-158,158
		c-18.9,18.8-36.9,38.8-57.8,55.1c-50.7,39.5-107.6,47.5-167.2,23.2c-57.8-23.6-91.7-67.9-102.9-129.3c-1.2-6.4-1.4-13.1-1.4-19.6
		c-0.1-53.3-0.1-106.5-0.1-159.8c0-6.4,5.2-11.6,11.6-11.6h29.9c6.4,0,11.6,5.2,11.6,11.6c0,4.4,0,8.7,0,13.1c0,3,0.2,6.1,0.4,9.8
		v115.2h0.8c-0.4,2.8-0.6,5.6-0.8,8.4c-2.6,45,22.2,89.1,63.8,108.8c40.2,19.1,79.4,15.5,116.6-8.4c6.7-4.3,12.3-10.3,18-16
		c58.2-58,116.2-116.2,174.4-174.2c16.5-16.5,32.2-33.9,52.3-46.4c33-20.7,68.8-29.6,107.6-25.6c22.8,2.3,44.4,9.1,64.4,20.2
		c15.7,8.7,30.1,19.4,42.1,32.9c9.7,10.9,9.9,19.1-0.4,29.9c-19.8,20.9-40.3,41.3-60.7,61.7c-37.1,37.3-74.4,74.4-111.6,111.6
		c-2.8,2.8-5.3,5.8-8.9,9.9c13.5,9.6,27.1,13.8,41.2,15.4c46.4,5.3,84-10.6,111.4-48.7c11.7-16.4,17.7-35.2,19.6-55.1
		c0.8-8.7,4.3-15,10.4-20.8c9-8.5,17.6-17.6,26.5-26.2c2.5-2.4,5.5-4.3,9.7-7.5c2,5.1,3.9,8.5,4.6,12.1
		C1114.5,388.4,1115.8,406.9,1112.7,425.5z"/>
	<g>
		<path d="M122.5,692.8V877H88.9V692.8H122.5z"/>
		<path d="M161.3,783.6c0-15.3-0.5-28.2-1.1-39.6h29.3l1.6,20h0.8c6-10.4,20.5-23,42.6-23c23.2,0,47.3,15,47.3,57.1v79h-33.6v-75.2
			c0-19.1-7.1-33.6-25.4-33.6c-13.4,0-22.7,9.6-26.2,19.7c-1.1,2.7-1.6,6.8-1.6,10.7V877h-33.6V783.6z"/>
		<path d="M321.5,877v-108h-18v-25.1h18v-6.3c0-35.8,24.9-57.7,64.2-57.7c13.4,0,29.2,3.6,36.9,8.5l-7.7,25.4
			c-6-3.6-16.7-7.1-29.2-7.1c-23.2,0-30.9,14.2-30.9,31.7v5.5h79.3V877h-33.6v-108h-45.4v108H321.5z"/>
		<path d="M470.5,783.6c0-15.3-0.5-28.2-1.1-39.6h29.3l1.6,20h0.8c6-10.4,20.5-23,42.6-23c23.2,0,47.3,15,47.3,57.1v79h-33.6v-75.2
			c0-19.1-7.1-33.6-25.4-33.6c-13.4,0-22.7,9.6-26.2,19.7c-1.1,2.7-1.6,6.8-1.6,10.7V877h-33.6V783.6z"/>
		<path d="M643.8,743.9l23.8,71.3c2.7,8.2,5.7,18.3,7.7,25.7h0.8c1.9-7.4,4.4-17.5,7.1-26l20.8-71.1h35.8l-33.3,90.8
			c-18.3,49.8-30.6,71.9-46.2,85.6c-13.4,11.5-27.1,15.9-35.3,16.9l-7.7-28.2c5.7-1.4,12.6-4.4,19.4-9.3c6.6-4.1,13.9-12,18.6-21
			c1.4-2.5,1.9-4.4,1.9-6c0-1.4-0.3-3.3-1.6-6.6l-48.9-122.2H643.8z"/>
		<path d="M863.6,795.3h-69.4v54.1h77.6V877H760.5V692.8h107.2v27.6h-73.5V768h69.4V795.3z"/>
		<path d="M918.5,743.9l21.6,67.5c3.8,11.8,6.6,22.4,9,33.3h0.8c2.5-10.9,5.5-21.3,9-33.3l21.3-67.5h35.3L964.7,877h-33.1
			l-49.5-133.1H918.5z"/>
		<path d="M1056.3,819.9c0.8,24.1,19.4,34.4,41,34.4c15.6,0,26.5-2.5,36.9-6l4.9,23c-11.5,4.9-27.3,8.5-46.5,8.5
			c-43.2,0-68.6-26.5-68.6-67.2c0-36.9,22.4-71.6,65.1-71.6c43.2,0,57.4,35.5,57.4,64.8c0,6.3-0.5,11.2-1.1,14.2H1056.3z
			 M1114.8,796.4c0.3-12.3-5.2-32.5-27.6-32.5c-20.8,0-29.5,18.9-30.9,32.5H1114.8z"/>
		<path d="M1173.6,783.6c0-15.3-0.5-28.2-1.1-39.6h29.3l1.6,20h0.8c6-10.4,20.5-23,42.6-23c23.2,0,47.3,15,47.3,57.1v79h-33.6v-75.2
			c0-19.1-7.1-33.6-25.4-33.6c-13.4,0-22.7,9.6-26.2,19.7c-1.1,2.7-1.6,6.8-1.6,10.7V877h-33.6V783.6z"/>
		<path d="M1367.1,709.8v34.2h32v25.1h-32v58.8c0,16.4,4.4,24.6,17.2,24.6c6,0,9.3-0.3,13.1-1.4l0.5,25.4
			c-4.9,1.9-13.9,3.6-24.3,3.6c-12.6,0-22.7-4.1-29-10.9c-7.4-7.7-10.7-20-10.7-37.5v-62.6h-18.9v-25.1h18.9V719L1367.1,709.8z"/>
	</g>
	<polygon class="st1" points="404.9,47.3 428.5,130 514.4,126.9 443.1,174.9 472.6,255.6 404.9,202.7 337.2,255.6 366.7,174.9 
		295.4,126.9 381.3,130 	"/>
	<polygon class="st2" points="404.9,129.5 412.1,154.8 438.4,153.8 416.6,168.6 425.6,193.3 404.9,177.1 384.1,193.3 393.2,168.6 
		371.3,153.8 397.7,154.8 	"/>
</g>
</svg>
