<?xml version="1.0" encoding="utf-8"?>
<!-- Generator: Adobe Illustrator 23.0.5, SVG Export Plug-In . SVG Version: 6.00 Build 0)  -->
<svg version="1.1" id="Calque_1" xmlns="http://www.w3.org/2000/svg" xmlns:xlink="http://www.w3.org/1999/xlink" x="0px" y="0px"
	 viewBox="0 0 1476 992.7" style="enable-background:new 0 0 1476 992.7;" xml:space="preserve">
<style type="text/css">
	.st0{fill:#9E9D9D;}
	.st1{fill:#FFFFFF;}
</style>
<path class="st0" d="M1273,660.5c-15,90.1-63.7,154.1-148.8,188c-88.9,35.4-189.7,11.8-255.2-57.6c-15.5-16.5-16.3-24.9-1.4-42.1
	c11.6-13.4,24.4-25.8,37-38.3c33.9-33.7,68.2-67,102.1-100.7c36-35.8,71.8-71.8,107.6-107.8c2-2.1,3.4-4.9,6.1-8.9
	c-5.1-3.3-9.3-6.6-14-8.9c-57.9-27.5-131.9-15.8-180.4,32.8C852.8,590.6,779.4,664,705.9,737.2c-26.3,26.2-51.4,54.1-80.5,76.8
	c-70.7,55.1-149.9,66.2-232.9,32.3c-80.6-32.9-127.8-94.5-143.3-180.2c-1.6-8.9-2-18.2-2-27.3c-0.1-74.2-0.1-148.4-0.1-222.6
	c0-8.9,7.2-16.2,16.2-16.2h41.6c9,0,16.2,7.3,16.2,16.2c0,6.1,0,12.2,0,18.2c0,4.2,0.3,8.5,0.5,13.7v160.4h1.1
	c-0.5,3.8-0.9,7.8-1.1,11.7c-3.6,62.6,31,124.1,88.9,151.6c56.1,26.6,110.6,21.6,162.5-11.7c9.3-6,17.1-14.4,25-22.2
	c81-80.8,161.9-161.8,242.9-242.7c23-23,44.9-47.2,72.9-64.7c46-28.8,95.9-41.3,149.9-35.7c31.7,3.3,61.8,12.6,89.7,28.1
	c21.9,12.1,41.9,27.1,58.7,45.8c13.5,15.1,13.7,26.7-0.5,41.6c-27.6,29.2-56.1,57.5-84.5,86c-51.7,51.9-103.6,103.6-155.4,155.4
	c-3.8,3.9-7.4,8.1-12.5,13.8C978,779,997,784.8,1016.6,787c64.6,7.4,117-14.7,155.2-67.9c16.4-22.8,24.7-49.1,27.3-76.8
	c1.1-12.1,6-20.9,14.5-29c12.6-11.9,24.5-24.5,36.9-36.5c3.5-3.4,7.7-5.9,13.6-10.4c2.7,7.1,5.4,11.8,6.4,16.9
	C1275.6,608.8,1277.3,634.5,1273,660.5z"/>
<polygon class="st0" points="287,133.7 319.9,248.8 439.5,244.5 340.2,311.4 381.2,423.9 287,350.1 192.7,423.9 233.7,311.4 
	134.4,244.5 254,248.8 "/>
<polygon class="st1" points="287,248.1 297,283.4 333.7,282 303.3,302.5 315.9,337 287,314.4 258.1,337 270.6,302.5 240.2,282 
	276.9,283.4 "/>
</svg>
